<svg width="2809" height="939" viewBox="0 0 2809 939" fill="none" xmlns="http://www.w3.org/2000/svg">
<path d="M981.974 880.019H101.516L541.745 117.514L981.974 880.019Z" stroke="white" stroke-width="116.667"/>
<path d="M740.212 740.435H343.278L541.745 396.681L740.212 740.435Z" stroke="white" stroke-width="83.3333"/>
<path d="M1246.75 787.102L1240.33 645.935L1576.74 296.685H1710.58L1431 593.685L1364.99 666.102L1246.75 787.102ZM1140.41 938.352V296.685H1259.58V938.352H1140.41ZM1587.75 938.352L1342.08 645.935L1420.91 558.852L1727.08 938.352H1587.75ZM1788.05 938.352V258.185H1902.63V938.352H1788.05ZM2043.86 938.352V448.852H2158.44V938.352H2043.86ZM2101.61 368.185C2080.22 368.185 2062.5 361.464 2048.44 348.019C2035 334.573 2028.27 318.381 2028.27 299.435C2028.27 279.881 2035 263.685 2048.44 250.852C2062.5 237.406 2080.22 230.685 2101.61 230.685C2123 230.685 2140.42 237.102 2153.86 249.935C2167.92 262.156 2174.94 277.739 2174.94 296.685C2174.94 316.852 2168.22 333.964 2154.77 348.019C2141.33 361.464 2123.61 368.185 2101.61 368.185ZM2393.17 829.269L2395.92 685.352L2651.67 448.852H2789.17L2571.92 667.019L2511.42 717.435L2393.17 829.269ZM2299.67 938.352V258.185H2414.25V938.352H2299.67ZM2669.08 938.352L2490.33 717.435L2562.75 625.769L2808.42 938.352H2669.08Z" fill="white"/>
</svg>
